<?xml version="1.0" encoding="UTF-8"?>
<svg id="Layer_1" data-name="Layer 1" xmlns="http://www.w3.org/2000/svg" viewBox="0 0 95.3999 86.8481">
  <g>
    <path d="M38.2666,29.3958c-4.0641-7.0393-13.1627-9.5241-20.202-5.46-4.3765,2.5267-6.9641,6.9617-7.3191,11.6472-.0406,.5366-.5906,.85-1.0867,.6414-2.9292-1.2315-4.9769,.3218-4.9769,.3218-2.4923,1.5125-3.2493,4.694-1.7916,7.2189l2.8074,4.8679,.27-.1559c-.2544-1.6616,.4424-3.3896,1.9667-4.2697,2.0144-1.163,4.5901-.4728,5.7531,1.5416l10.7341,18.6049c.3563,.6177,.3049,1.3904-.1338,1.9526-1.6699,2.14-3.179,4.3921-4.5056,6.7263l4.041,6.9993c4.8977-8.2028,11.896-15.3062,20.7573-20.4222,4.5981-2.6875,6.2444-8.5207,3.5569-13.1188l-9.8707-17.0953Zm1.5634,22.9806c-3.0388,1.8687-6.2712,4.1959-8.9082,6.4966-.8392,.7321-2.0432,.4716-2.5994-.4932l-9.6499-16.7142c-2.0737-3.5919-.8584-8.1451,2.8131-10.1327,3.5387-1.9157,8.0118-.5698,10.0238,2.915l8.907,15.4274c.4773,.8269,.2271,2.0009-.5864,2.5011Z" style="fill: #ffed37;"/>
    <path d="M87.1615,34.1314c-2.6848-.0182-5.3896,.1625-8.0779,.5389-.7063,.0989-1.4011-.243-1.7579-.8605l-10.7452-18.5984c-1.1631-2.0143-.4729-4.5901,1.5415-5.7531,1.5244-.8801,3.3691-.6194,4.6809,.4316l.27-.1559-2.812-4.8652c-1.4578-2.5248-4.5914-3.46-7.1475-2.0579,0,0-2.3691,.9966-2.7673,4.1492-.0674,.5339-.6138,.8535-1.0988,.6204-4.2352-2.0353-9.37-2.0118-13.7463,.515-7.0393,4.0641-9.4366,13.1861-5.3724,20.2254l9.8696,17.096c2.6382,4.6265,8.5131,6.1174,13.1396,3.479,8.8612-5.116,18.5122-7.6251,28.0647-7.7652l-4.041-6.9993Zm-17.8325,2.5672c-3.311,1.1334-6.9426,2.7692-10.0804,4.4666-.8398,.4543-1.9818,.0842-2.4591-.7428l-8.9071-15.4274c-2.012-3.4848-.941-8.0316,2.4874-10.1382,3.557-2.1858,8.1079-.9618,10.1816,2.6301l9.6499,16.7142c.5576,.964,.1812,2.137-.8723,2.4976Z" style="fill: #ffed37;"/>
  </g>
  <g>
    <path d="M94.6214,42.8576L72.0136,3.6998c-2.0321-3.5197-6.4648-4.7513-9.9845-2.7192,0,0-2.4919,1.173-3.3167,4.0912-4.6272-1.7145-9.9695-1.3901-14.5461,1.37-6.147,3.7072-8.9775,10.799-7.7863,17.5367-5.2393-4.4006-12.7964-5.495-19.0804-2.0252-4.6785,2.5834-7.6306,7.0477-8.4594,11.9122-2.9396-.7448-5.2015,.8268-5.2015,.8268-3.5195,2.0321-4.6693,6.4868-2.6372,10.0065l22.6077,39.1578c.802,1.3887,1.947,2.3167,3.5299,2.5737,8.2191,1.1469,14.579,.2634,26.9271-6.8572,4.9305-2.8493,8.4133-6.2771,8.3999-10.4122,3.5742,2.0793,8.2843,.777,13.2172-2.0684,12.3407-7.1335,16.2856-12.1994,19.402-19.8909,.5688-1.4993,.3378-2.9549-.4639-4.3438Zm-19.2697-22.8634c1.5084-.8709,3.4373-.3541,4.3082,1.1544l6.3429,10.9863c-3.3112,.0331-6.9684,.3547-6.9684,.3547l-4.7892-8.295c-.871-1.5084-.402-3.3295,1.1064-4.2004ZM12.2894,60.0449c-.8708-1.5084-.354-3.4372,1.1543-4.3081,1.5085-.8709,3.3201-.3665,4.1909,1.142l4.7892,8.295s-2.1072,3.0066-3.7914,5.8575l-6.343-10.9864Zm26.1709,11.6894l-2.0403-3.5338c2.798-2.4912,5.1558-4.3083,8.5276-6.2551l3.2188,5.575c-3.376,1.9492-6.1399,3.0654-9.7061,4.2139Zm6.1201-12.1243c-8.8613,5.116-15.8596,12.2194-20.7573,20.4222l-4.041-6.9993c1.3267-2.3342,2.8357-4.5864,4.5056-6.7263,.4387-.5622,.4901-1.3349,.1338-1.9526l-10.7341-18.6049c-1.163-2.0143-3.7386-2.7045-5.7531-1.5416-1.5243,.8801-2.2211,2.6081-1.9667,4.2697l-.27,.1559-2.8074-4.8679c-1.4576-2.5248-.7007-5.7064,1.7916-7.2189,0,0,2.0477-1.5533,4.9769-.3218,.4961,.2086,1.046-.1049,1.0867-.6414,.355-4.6855,2.9426-9.1205,7.3191-11.6472,7.0393-4.0641,16.1379-1.5793,20.202,5.46l9.8707,17.0953c2.6875,4.5981,1.0413,10.4313-3.5569,13.1188Zm23.615-3.6533l-3.2188-5.575c3.3718-1.9467,6.1245-3.0801,9.6809-4.2576l2.0403,3.5338c-2.7777,2.5142-5.1263,4.3496-8.5024,6.2988Zm-5.0576-7.0608c-4.6266,2.6384-10.5015,1.1475-13.1396-3.479l-9.8696-17.096c-4.0642-7.0393-1.6669-16.1613,5.3724-20.2254,4.3763-2.5267,9.5111-2.5503,13.7463-.515,.485,.2331,1.0314-.0865,1.0988-.6204,.3982-3.1525,2.7673-4.1492,2.7673-4.1492,2.556-1.4022,5.6897-.4669,7.1475,2.0579l2.812,4.8652-.27,.1559c-1.3118-1.0511-3.1565-1.3118-4.6809-.4316-2.0144,1.163-2.7046,3.7387-1.5415,5.7531l10.7452,18.5984c.3568,.6175,1.0516,.9594,1.7579,.8605,2.6882-.3763,5.3931-.5571,8.0779-.5389l4.041,6.9993c-9.5525,.1401-19.2035,2.6492-28.0647,7.7652Z"/>
    <path d="M60.5514,17.4868c-2.0737-3.5919-6.6246-4.8159-10.1816-2.6301-3.4285,2.1067-4.4994,6.6534-2.4874,10.1382l8.9071,15.4274c.4773,.827,1.6193,1.1971,2.4591,.7428,3.1378-1.6974,6.7694-3.3332,10.0804-4.4666,1.0535-.3607,1.4299-1.5336,.8723-2.4976l-9.6499-16.7142Zm-9.167,9.0618c-3.9645-4.9658-2.1844-8.6075,.166-9.9377,2.5256-1.4293,6.353-.7128,8.1763,3.6594-4.5894,1.8823-8.3423,6.2783-8.3423,6.2783Zm7.0657,12.5453c-2.1466-3.7181-.3518-6.507,2.2712-7.7488,2.6228-1.2418,5.8014-.621,7.4402,3.5167-3.9526,1.1278-9.7114,4.2321-9.7114,4.2321Z"/>
    <path d="M31.5094,34.448c-2.012-3.4849-6.4851-4.8307-10.0238-2.915-3.6715,1.9876-4.8868,6.5408-2.8131,10.1327l9.6499,16.7142c.5562,.9648,1.7601,1.2253,2.5994,.4932,2.637-2.3007,5.8694-4.6279,8.9082-6.4966,.8135-.5002,1.0637-1.6742,.5864-2.5011l-8.907-15.4274Zm-9.095-1.0155c2.3271-1.3704,6.3711-1.0911,8.6893,4.8251,0,0-5.6836,1.0521-9.6084,4.0855-2.8746-3.7651-1.5817-7.438,.9191-8.9106Zm7.5002,23.5112c-2.7639-3.4882-1.7123-6.5512,.6746-8.2018,2.387-1.6507,5.6996-1.8106,7.8462,1.9075,0,0-5.5676,3.4351-8.5208,6.2944Z"/>
  </g>
</svg>